<svg width="209" height="19" viewBox="0 0 209 19" fill="none" xmlns="http://www.w3.org/2000/svg">
<path d="M3.64366 18.3347V11.7587H9.94814V8.61468H3.64366V4.27068H11.1227V1.10268H0V18.3347H3.64366Z" fill="white"/>
<path d="M21.7267 11.8547L27.8634 1.10268H24.1958L20.0248 8.51868L15.9256 1.10268H11.9943L18.0831 11.8547V18.3347H21.7267V11.8547Z" fill="white"/>
<path d="M33.4207 18.3347V12.2387H35.698L39.5813 18.3347H43.9202L39.4854 11.6867C41.9305 10.8707 43.3688 9.02268 43.3688 6.69468C43.3688 3.11868 40.8518 1.10268 36.513 1.10268H29.777V18.3347H33.4207ZM33.4207 4.12668H36.3452C38.5506 4.12668 39.7252 4.99068 39.7252 6.69468C39.7252 8.37468 38.5506 9.23868 36.3452 9.23868H33.4207V4.12668Z" fill="white"/>
<path d="M49.8308 18.3347V12.2387H52.1081L55.9915 18.3347H60.3303L55.8956 11.6867C58.3407 10.8707 59.7789 9.02268 59.7789 6.69468C59.7789 3.11868 57.2619 1.10268 52.9231 1.10268H46.1871V18.3347H49.8308ZM49.8308 4.12668H52.7553C54.9607 4.12668 56.1353 4.99068 56.1353 6.69468C56.1353 8.37468 54.9607 9.23868 52.7553 9.23868H49.8308V4.12668Z" fill="white"/>
<path d="M74.1755 15.1667H66.2409V11.0387H73.2885V7.89468H66.2409V4.27068H74.0077V1.10268H62.5973V18.3347H74.1755V15.1667Z" fill="white"/>
<path d="M89.8185 18.3347H92.8629L97.4175 6.79068V18.3347H100.726V1.10268H96.3627L91.3527 13.8707L86.3666 1.10268H82.0038V18.3347H85.3119V6.88668L89.8185 18.3347Z" fill="white"/>
<path d="M115.749 18.3347H119.657L113.232 1.10268H109.253L102.781 18.3347H106.448L107.767 14.6387H114.455L115.749 18.3347ZM111.147 5.08668L113.448 11.7347H108.798L111.147 5.08668Z" fill="white"/>
<path d="M128.609 18.6947C134.099 18.6947 137.503 14.6627 137.287 9.04668H128.418V11.9507H133.404C132.924 14.0867 131.318 15.5987 128.777 15.5987C125.325 15.5987 123.479 13.0547 123.479 9.74268C123.479 6.04668 125.589 4.00668 128.37 4.00668C130.671 4.00668 132.253 5.32668 132.78 7.07868H137.071C135.945 3.33468 132.828 0.742676 128.466 0.742676C123.432 0.742676 119.74 4.55868 119.74 9.64668C119.74 14.9747 123.623 18.6947 128.609 18.6947Z" fill="white"/>
<path d="M150.419 18.3347H154.326L147.902 1.10268H143.923L137.45 18.3347H141.118L142.436 14.6387H149.124L150.419 18.3347ZM145.816 5.08668L148.118 11.7347H143.467L145.816 5.08668Z" fill="white"/>
<path d="M169.2 18.3347V15.1907H160.067L168.912 4.03068V1.10268H155.656V4.24668H164.429L155.632 15.4547V18.3347H169.2Z" fill="white"/>
<path d="M175.494 18.3347V1.10268H171.85V18.3347H175.494Z" fill="white"/>
<path d="M190.232 18.3347H193.804V1.10268H190.448V12.5267L182.945 1.10268H179.013V18.3347H182.345V6.31068L190.232 18.3347Z" fill="white"/>
<path d="M208.921 15.1667H200.987V11.0387H208.034V7.89468H200.987V4.27068H208.753V1.10268H197.343V18.3347H208.921V15.1667Z" fill="white"/>
</svg>
